<svg xmlns="http://www.w3.org/2000/svg" viewBox="0 0 256 256" width="256" height="256">
  <defs><clipPath id="c"><circle cx="128" cy="128" r="118"/></clipPath></defs>
  <circle cx="128" cy="128" r="124" fill="#070b07"/>
  <circle cx="128" cy="128" r="118" fill="#0c160d"/>
  <g clip-path="url(#c)" fill="#16361f">
    <path d="M8 66 q42 -22 74 4 q-32 32 -74 26 z"/>
    <path d="M252 86 q-42 -10 -68 20 q36 30 68 12 z"/>
    <path d="M28 204 q42 6 60 38 q-54 18 -82 -8 z"/>
    <path d="M206 212 q26 -30 66 -16 q-8 46 -58 50 z"/>
    <circle cx="58" cy="150" r="13"/><circle cx="214" cy="158" r="9"/>
  </g>
  <g clip-path="url(#c)" fill="#27583a" opacity="0.85">
    <path d="M12 118 q36 -8 52 20 q-32 24 -58 6 z"/>
    <path d="M240 150 q-32 -6 -50 18 q28 26 54 8 z"/>
  </g>
  <!-- brontosaurus -->
  <g fill="#7cc66f">
    <ellipse cx="150" cy="158" rx="60" ry="42"/>
    <path d="M198 144 C 224 140 236 154 248 152 C 234 164 214 170 196 168 Z"/>
    <rect x="120" y="186" width="20" height="36" rx="10"/>
    <rect x="170" y="188" width="20" height="34" rx="10"/>
    <!-- neck + head, smooth sweep, left-facing -->
    <path d="M152 126
             C 126 118 106 96 102 72
             C 99 55 110 42 128 42
             C 142 42 150 52 147 64
             C 158 66 168 60 176 64
             C 170 78 156 80 145 74
             C 140 92 142 110 152 124 Z"/>
    <ellipse cx="120" cy="52" rx="21" ry="16"/>
  </g>
  <circle cx="114" cy="48" r="3.6" fill="#0c160d"/>
</svg>
